<?xml version="1.0" encoding="utf-8"?>
<!-- Svg Vector Icons : http://www.onlinewebfonts.com/icon -->
<!DOCTYPE svg PUBLIC "-//W3C//DTD SVG 1.1//EN" "http://www.w3.org/Graphics/SVG/1.1/DTD/svg11.dtd">
<svg version="1.1" xmlns="http://www.w3.org/2000/svg" xmlns:xlink="http://www.w3.org/1999/xlink" x="0px" y="0px" viewBox="0 0 256 256" enable-background="new 0 0 256 256" xml:space="preserve">
<metadata> Svg Vector Icons : http://www.onlinewebfonts.com/icon </metadata>
<g><g><g><path fill="#000000" d="M10,128v79.4h118h118V128V48.6H128H10V128z M221.1,60.7c-0.2,0.8-92.6,97.9-93.1,97.9c-0.3,0-68.1-71-90-94.3l-3.9-4.1h93.6C189.3,60.1,221.3,60.3,221.1,60.7z M79,124.1c26.7,28.1,48.8,51.1,49,51.1s24.1-24.9,53-55.3c28.9-30.4,52.7-55.3,52.8-55.3c0.1,0,0.2,29.5,0.2,65.6v65.6H128H22.1v-65.8l0.1-65.7l4.1,4.3C28.6,71.1,52.3,96.1,79,124.1z"/></g></g></g>
</svg>